<svg width="18" height="18" viewBox="0 0 18 18" fill="none" xmlns="http://www.w3.org/2000/svg">
<path fill-rule="evenodd" clip-rule="evenodd" d="M5.13636 0.500001L16.7273 0.5C16.9322 0.5 17.1288 0.581412 17.2737 0.726327C17.4186 0.871241 17.5 1.06779 17.5 1.27273V12.8636C17.5 13.2904 17.154 13.6364 16.7273 13.6364C16.3005 13.6364 15.9545 13.2904 15.9545 12.8636V3.13826L1.81913 17.2737C1.51736 17.5754 1.0281 17.5754 0.726327 17.2737C0.424558 16.9719 0.424558 16.4826 0.726327 16.1809L14.8617 2.04545L5.13636 2.04546C4.7096 2.04546 4.36364 1.69949 4.36364 1.27273C4.36364 0.845962 4.7096 0.500001 5.13636 0.500001Z" fill="#999999"/>
</svg>
